<?xml version="1.0" standalone="no"?>
<!DOCTYPE svg PUBLIC "-//W3C//DTD SVG 20010904//EN"
 "http://www.w3.org/TR/2001/REC-SVG-20010904/DTD/svg10.dtd">
<svg version="1.0" xmlns="http://www.w3.org/2000/svg"
 width="730.000000pt" height="529.000000pt" viewBox="0 0 730.000000 529.000000"
 preserveAspectRatio="xMidYMid meet">

<g transform="translate(0.000000,529.000000) scale(0.100000,-0.100000)"
fill="#000000" stroke="none">
<path d="M6060 5268 c-35 -18 -51 -35 -70 -73 l-25 -50 -3 -757 -3 -758 -64 0
-65 0 -2 138 c-3 164 -3 163 1 702 4 448 2 481 -41 535 -27 34 -92 65 -138 65
-51 0 -113 -32 -146 -76 l-29 -37 -3 -964 -2 -963 -65 0 -65 0 -1 48 c0 26 -4
67 -7 92 l-7 45 -23 -61 c-26 -73 -103 -195 -174 -277 l-51 -59 50 -51 c28
-29 60 -69 72 -89 13 -21 26 -38 29 -38 4 0 20 25 36 56 69 131 206 267 326
322 89 41 156 37 263 -16 l86 -43 42 28 c37 24 53 28 115 28 66 0 75 -3 111
-32 l40 -32 73 20 c41 10 93 19 117 19 25 0 62 9 86 22 27 13 68 23 113 26
224 14 366 -147 302 -344 -13 -40 -14 -56 -5 -71 43 -75 49 -91 49 -133 0 -28
-8 -63 -22 -91 -49 -96 -203 -214 -337 -258 -77 -26 -199 -28 -267 -5 -68 23
-141 95 -170 167 -13 32 -27 59 -32 60 -4 1 -38 -47 -75 -107 -87 -144 -109
-161 -208 -161 -67 0 -81 3 -118 29 l-43 28 -85 -21 c-84 -22 -87 -22 -174 -5
-85 16 -91 16 -117 0 l-26 -18 58 -60 c71 -71 205 -164 317 -217 311 -149 633
-146 953 9 295 143 543 431 625 725 33 119 38 295 31 1040 l-7 710 -25 45
c-65 117 -229 118 -298 2 l-27 -47 3 -375 c2 -206 0 -394 -3 -417 l-6 -43 -60
0 -59 0 0 694 c0 422 -4 714 -10 746 -18 95 -81 150 -170 150 -77 0 -132 -38
-167 -115 -17 -37 -18 -83 -15 -682 l3 -643 -65 0 -66 0 0 743 c0 814 0 815
-58 870 -53 51 -132 60 -202 25z"/>
<path d="M3154 4770 c-230 -60 -416 -236 -491 -465 -22 -67 -26 -99 -27 -200
-1 -129 18 -214 71 -318 40 -81 192 -246 255 -278 l39 -20 96 62 c218 141 499
252 733 289 74 12 140 26 147 32 20 16 32 74 39 178 23 333 -190 629 -516 719
-97 27 -246 28 -346 1z"/>
<path d="M1295 3931 c-206 -59 -388 -236 -455 -441 -41 -127 -34 -294 16 -391
14 -27 19 -30 47 -25 18 3 60 9 95 12 38 4 62 11 62 19 0 6 -9 37 -19 68 -29
82 -34 135 -21 207 42 242 268 409 500 370 280 -47 441 -319 349 -587 -20 -60
-44 -97 -103 -162 -23 -26 -35 -46 -28 -49 6 -2 40 10 74 27 35 17 85 35 111
40 26 5 50 10 52 12 2 2 28 46 58 97 66 112 76 163 53 292 -24 133 -79 235
-185 341 -93 93 -181 145 -296 174 -80 20 -233 18 -310 -4z"/>
<path d="M5092 3913 c-38 -19 -74 -63 -91 -113 -16 -45 -27 -240 -14 -240 5 0
35 5 67 11 106 19 206 -21 258 -104 31 -50 36 -33 37 109 1 134 -12 215 -46
272 -42 73 -137 102 -211 65z"/>
<path d="M3859 3681 c-327 -60 -719 -265 -957 -499 -122 -120 -182 -228 -182
-327 0 -71 14 -102 56 -127 88 -51 214 -44 544 29 120 27 233 46 273 47 61 1
71 -2 88 -23 27 -33 24 -66 -12 -141 -41 -87 -192 -238 -304 -304 -154 -90
-396 -145 -445 -101 -30 27 -24 61 21 137 23 38 39 71 36 74 -12 12 -69 -40
-97 -89 -31 -54 -40 -120 -20 -156 20 -38 97 -54 192 -41 238 33 516 203 687
420 89 112 104 189 48 245 -58 58 -154 57 -468 -6 -255 -51 -394 -49 -453 6
-62 57 -20 154 133 305 183 181 386 302 682 405 133 46 222 65 310 65 82 0
125 -16 162 -59 30 -36 35 -86 17 -181 -12 -61 -7 -74 21 -59 33 17 69 106 69
169 -1 95 -43 159 -130 197 -41 18 -203 26 -271 14z"/>
<path d="M2591 3568 c-67 -18 -196 -181 -398 -506 -128 -205 -111 -188 -195
-202 -110 -19 -158 -51 -158 -108 0 -20 4 -23 23 -19 93 22 138 29 143 24 3
-3 -30 -81 -74 -174 -91 -192 -122 -282 -122 -359 0 -50 2 -55 28 -65 51 -20
152 31 152 76 0 12 -9 15 -42 13 l-43 -3 1 65 c1 78 46 188 152 370 67 115 67
115 122 133 30 11 91 21 135 24 120 7 127 9 123 41 -2 22 -8 27 -28 25 -14 -1
-70 -5 -124 -9 l-99 -7 33 59 c96 167 283 436 340 488 46 41 93 49 110 17 5
-11 10 -56 10 -100 0 -62 3 -81 14 -81 17 0 26 44 26 125 0 70 -14 120 -42
152 -25 27 -45 32 -87 21z"/>
<path d="M5053 3391 c-57 -35 -114 -123 -210 -321 -52 -107 -146 -298 -209
-425 -62 -126 -125 -265 -139 -308 -41 -124 -26 -190 38 -173 42 10 82 51 158
163 112 164 162 213 222 213 19 0 32 -17 77 -97 65 -120 101 -167 140 -183 40
-16 93 -7 141 25 36 23 77 81 65 92 -2 3 -27 -8 -55 -24 -75 -41 -90 -30 -166
124 -66 134 -98 178 -139 189 -65 16 -103 -15 -209 -174 -69 -102 -116 -152
-144 -152 -13 0 -15 9 -10 56 12 112 123 300 278 469 176 192 277 352 287 453
4 44 2 51 -23 70 -34 27 -61 28 -102 3z m54 -102 c-11 -84 -109 -238 -236
-370 -56 -59 -61 -62 -55 -34 13 61 86 232 130 301 50 81 114 144 145 144 19
0 21 -4 16 -41z"/>
<path d="M3629 3191 l-306 -6 -96 -73 c-95 -72 -157 -133 -157 -154 0 -16 115
-1 295 40 133 30 180 36 275 37 104 0 120 -3 171 -26 31 -15 78 -47 104 -73
27 -25 49 -45 50 -43 10 11 36 72 50 117 10 30 27 72 37 94 l20 39 -24 23
c-30 31 -48 32 -419 25z"/>
<path d="M4212 3032 c-11 -9 -39 -69 -62 -132 -86 -234 -110 -275 -283 -490
-143 -178 -235 -317 -312 -473 -71 -144 -103 -255 -86 -300 16 -40 60 -37 110
8 55 50 217 296 303 459 l73 140 65 16 c233 59 426 224 540 462 55 113 60 155
27 193 -22 26 -31 29 -78 28 -36 0 -85 -12 -148 -37 -52 -20 -96 -34 -99 -31
-4 3 -1 30 6 61 17 84 -12 135 -56 96z m308 -147 c19 -23 7 -115 -23 -177 -34
-69 -121 -166 -201 -223 -75 -53 -198 -113 -249 -122 l-37 -6 33 78 c17 43 57
128 87 189 49 100 62 116 120 163 121 97 236 139 270 98z"/>
<path d="M910 2893 c-67 -33 -159 -124 -190 -188 -35 -72 -32 -127 12 -206 44
-79 51 -108 37 -148 -14 -41 -50 -59 -166 -82 -118 -24 -135 -32 -103 -49 38
-20 136 -13 260 19 147 38 222 66 246 92 l19 21 -66 -7 -66 -7 -7 38 c-4 21
-25 82 -47 137 -49 121 -57 173 -35 214 42 82 134 153 197 153 45 0 49 -8 49
-106 0 -76 6 -87 32 -56 40 46 51 149 18 182 -31 31 -121 28 -190 -7z"/>
<path d="M2530 2865 c-141 -45 -300 -266 -300 -416 0 -108 53 -164 156 -164
84 0 209 61 282 139 29 30 52 60 52 66 0 13 -18 3 -134 -77 -78 -53 -127 -73
-183 -73 -40 0 -75 41 -71 83 3 26 15 37 105 87 131 74 187 121 224 184 37 65
37 106 2 146 -34 37 -73 44 -133 25z m98 -93 c5 -35 -34 -88 -107 -146 -74
-60 -159 -111 -168 -103 -11 11 46 112 94 166 90 103 173 141 181 83z"/>
<path d="M5675 2868 c-93 -34 -201 -142 -258 -257 -85 -170 -54 -302 75 -326
78 -15 219 46 309 134 96 93 73 104 -36 18 -69 -55 -161 -97 -212 -97 -33 0
-46 5 -62 26 -12 15 -21 39 -21 55 0 25 11 34 112 91 214 121 296 244 221 328
-32 35 -81 46 -128 28z m93 -96 c5 -34 -33 -88 -104 -146 -68 -56 -161 -112
-171 -102 -11 11 48 115 95 167 92 102 172 138 180 81z"/>
<path d="M6565 2836 c-28 -18 -76 -62 -108 -96 -141 -151 -176 -337 -80 -421
35 -30 39 -31 112 -27 80 5 138 28 228 90 45 30 100 94 90 104 -3 3 -43 -19
-89 -50 -176 -117 -265 -128 -293 -38 -11 37 16 64 116 117 156 82 265 211
245 290 -9 37 -61 65 -121 65 -41 0 -60 -7 -100 -34z m153 -74 c3 -30 -4 -41
-65 -100 -69 -68 -195 -150 -201 -133 -13 38 98 189 175 240 60 40 87 38 91
-7z"/>
<path d="M1435 2826 c-98 -46 -200 -149 -276 -279 -73 -123 -94 -220 -58 -263
31 -38 87 -7 215 117 56 55 104 99 107 99 3 0 3 -47 0 -104 -6 -102 -5 -104
20 -130 14 -14 35 -26 45 -26 31 0 141 60 183 100 66 63 46 75 -36 20 -58 -39
-90 -45 -115 -20 -51 51 5 244 112 388 45 60 43 69 -23 103 -51 26 -113 24
-174 -5z m105 -48 c-1 -80 -193 -316 -298 -367 -32 -15 -35 -15 -48 4 -20 27
-18 42 15 110 62 129 220 275 297 275 29 0 34 -4 34 -22z"/>
<path d="M6068 2823 c-15 -16 -40 -55 -56 -88 -169 -339 -202 -429 -169 -462
21 -22 43 -11 72 36 149 236 233 333 329 377 47 21 65 25 105 19 45 -6 50 -5
74 25 32 38 34 65 7 80 -45 24 -145 -24 -300 -144 -47 -36 -86 -63 -89 -61 -2
2 14 54 35 115 42 120 39 153 -8 103z"/>
<path d="M488 2685 c-66 -24 -152 -86 -238 -174 -113 -115 -167 -209 -217
-377 -16 -54 -18 -138 -21 -1091 l-3 -1033 1071 0 1070 0 0 1067 0 1066 -58
-55 c-72 -69 -129 -99 -204 -105 -80 -8 -135 15 -193 79 -49 55 -40 54 -152
22 l-53 -15 0 -930 0 -929 -345 0 -345 0 0 875 0 875 -170 0 -170 0 0 -875 0
-875 -124 0 -124 0 -7 482 c-4 266 -5 677 -3 913 5 481 6 484 80 627 50 97 96
150 187 213 l71 50 -6 100 c-4 55 -7 101 -8 101 0 1 -18 -4 -38 -11z"/>
<path d="M3267 2572 l-129 -26 7 -51 c3 -27 10 -54 15 -58 17 -18 184 77 239
137 29 31 33 31 -132 -2z"/>
<path d="M4848 2253 c-25 -28 -62 -92 -56 -98 2 -2 62 -26 133 -53 72 -28 138
-53 149 -57 37 -16 -10 48 -71 96 -33 25 -73 67 -89 93 -16 25 -32 46 -35 46
-3 0 -17 -12 -31 -27z"/>
<path d="M2600 2175 c-36 -19 -98 -41 -137 -50 l-73 -17 0 -1049 0 -1049 955
0 955 0 0 1090 c0 600 -2 1090 -4 1090 -15 0 -214 -95 -227 -108 -9 -9 -53
-82 -99 -162 -215 -377 -310 -473 -465 -473 -76 0 -135 28 -172 84 -21 32 -27
55 -31 117 -6 101 19 192 93 343 31 62 52 115 46 117 -5 2 -38 -9 -73 -24
-180 -76 -334 -112 -432 -100 -70 9 -167 57 -199 99 -13 18 -33 53 -45 80 -11
26 -22 47 -24 47 -2 -1 -32 -16 -68 -35z"/>
</g>
</svg>
